REM MD5 48c6d0c4a19f0dbebf5e35494d6f10cb
FILE "Play-Pre Vol. 19 (Japan) (Disc 1).bin" BINARY
  TRACK 01 MODE2/2352
    INDEX 01 00:00:00
  TRACK 02 AUDIO
    INDEX 00 47:16:38
    INDEX 01 47:18:38
  TRACK 03 AUDIO
    INDEX 00 48:20:14
    INDEX 01 48:22:14
REM LEADOUT 52:22:57
